<?xml version="1.0" encoding="utf-8"?>
<svg version="1.1" xmlns="http://www.w3.org/2000/svg" xmlns:xlink="http://www.w3.org/1999/xlink" height="372" width="621.0822747663865">
  <defs>
    <rect id="rect-0" opacity="1" x="0" y="0" width="621.0822747663865" height="372"/>
    <rect id="rect-1" opacity="1" x="0" y="0" width="621" height="372" rx="5" ry="5"/>
    <filter id="filter-2" filterUnits="userSpaceOnUse" x="-50%" y="-50%" width="200%" height="200%">
      <feOffset in="SourceAlpha" result="shadow-1-feOffset-shadow" dx="0" dy="5"/>
      <feGaussianBlur in="shadow-1-feOffset-shadow" result="shadow-1-feGaussianBlur-shadow" stdDeviation="2.5"/>
      <feColorMatrix in="shadow-1-feGaussianBlur-shadow" result="shadow-1-feColorMatrix-shadow" type="matrix" values="0 0 0 0 0  0 0 0 0 0  0 0 0 0 0  0 0 0 0.2 0"/>
    </filter>
    <path id="path-3" opacity="1" d="M5,0 L616.0822747663865,0 C618.8418498888565,0 621.0822747663865,2.24042487753 621.0822747663865,5 L621.0822747663865,34 L0,34 L0,5 C0,2.24042487753 2.24042487753,0 5,0Z"/>
    <rect id="rect-4" opacity="1" x="14" y="12" width="10.603448275862121" height="11" rx="8" ry="8"/>
    <rect id="rect-5" opacity="1" x="28.844827586207998" y="12" width="10.603448275862124" height="11" rx="8" ry="8"/>
    <rect id="rect-6" opacity="1" x="44.39655172413654" y="12" width="10.603448275862121" height="11" rx="8" ry="8"/>
    <rect id="rect-7" opacity="1" x="429" y="117" width="180" height="239"/>
    <rect id="rect-8" opacity="1" x="465" y="109" width="107.83493520882405" height="16"/>
    <rect id="rect-9" opacity="1" x="445" y="141" width="149" height="69"/>
    <rect id="rect-10" opacity="1" x="505" y="154" width="81" height="12"/>
    <rect id="rect-11" opacity="1" x="505" y="174" width="47" height="6"/>
    <rect id="rect-12" opacity="1" x="505" y="183" width="53" height="6"/>
    <rect id="rect-13" opacity="1" x="505" y="192" width="38" height="6"/>
    <ellipse id="ellipse-14" opacity="1" rx="24" ry="24" cx="476" cy="174"/>
    <ellipse id="ellipse-15" opacity="1" rx="11.865168539325845" ry="15.44971224993149" cx="476.80898876404495" cy="175.69690326116748"/>
    <path id="path-16" opacity="1" d="M472.7517924786153,157.89267562342368 C468.9172745835945,158.66243173118315 465.08275668857374,161.05722851087927 463.0881195772625,163.93098464651462 C461.04189702341733,166.89026923856767 460.62921348314603,169.7982367567701 461.52336115373384,175.03257828953446 C462.05641072658426,178.1800254857065 462.14238646414077,182.38802554145826 461.71250777635817,184.26965158264807 C461.57494659626775,184.8683507775721 461.52336115373384,185.34731013351131 461.60933689129035,185.34731013351131 C461.88445925147124,185.34731013351131 463.0365341347286,184.69729386473665 463.7243400351807,184.14991174366327 L464.4121459356329,183.60252962258986 L464.4637313781668,184.57755402575185 C464.4981216731894,185.12493614682523 464.4293410831442,185.79205810688345 464.3433653455877,186.0828548587037 C464.0510478378955,186.90392804031382 464.1026332804294,187.00656218801507 465.08275668857374,187.382887396253 C466.68190540712504,187.98158659117706 470.86032625237186,188.88818822920487 470.86032625237186,188.64870855123525 C470.86032625237186,188.61449716866818 470.58520389219103,188.34080610813146 470.24130094196494,188.05000935631122 C468.9688600261284,186.93813942288088 468.2982492731876,185.05651338169108 467.67922396278067,180.81430194337224 C467.1289792424189,177.10236693484325 467.9199560279389,176.12734253168128 473.2160614614205,173.9549197386712 C475.45143063789004,173.03121240935985 477.3085065691109,172.09039938876495 478.8560698451282,171.06405791175234 C480.42082826865686,170.0377164347397 482.6218071501038,168.07056193713217 483.258027608022,167.1468546078208 C483.48156452566894,166.80474078214993 483.75668688584983,166.53104972161324 483.85985777091764,166.53104972161324 C484.0833946885646,166.53104972161324 484.78839573652806,168.05345624584865 485.2870550143559,169.61007415265112 C486.5251056351698,173.54438314786617 486.6282765202376,178.8813588283318 485.56217737453676,183.07225319280002 C485.02912780168634,185.12493614682523 484.37571219625676,186.57891990592645 483.44717423064634,187.70789553064034 C482.8109537727281,188.49475732968335 482.7593683301942,188.59739147738463 483.1032712804203,188.52896871225045 C483.3268081980672,188.4776516383998 483.96302865598545,188.357911799415 484.53046852385853,188.25527765171375 C485.6997385546272,188.03290366502767 487.556814485848,187.46841585267074 488.27901068132275,187.10919633571632 C488.82925540168446,186.83550527517963 489.7234030722723,185.15914752939233 490.2220623501001,183.4656840923215 C490.4799895627697,182.57618814557725 490.5487701528149,181.80643203781779 490.5487701528149,179.65111493609126 C490.5487701528149,178.1800254857065 490.6003555953488,176.9655214045749 490.669136185394,176.9655214045749 C490.892673103041,176.9655214045749 492.0619431338096,178.07739133800524 492.3714557890131,178.573456385228 L492.68096844421655,179.06952143245078 L492.8013344767957,178.59056207651156 C493.1624325745331,177.13657831741034 492.4574315265696,172.32987906673458 491.4429178234027,169.26796032698024 C490.101696317521,165.3336513317652 487.3160824206897,162.08356998789188 485.23546957182197,162.08356998789188 C484.68522485146025,162.08356998789188 484.59924911390374,162.01514722275772 484.30693160621155,161.3480252626995 C483.6191257057594,159.80851304718058 481.5557080044029,158.54269189219835 478.7357038125491,157.96109838855784 C476.8958230288396,157.5847731803199 474.4197217872118,157.5505617977528 472.7517924786153,157.89267562342368Z"/>
    <rect id="rect-17" opacity="1" x="222" y="117" width="180" height="239"/>
    <rect id="rect-18" opacity="1" x="263" y="109" width="98.83493520882405" height="16"/>
    <rect id="rect-19" opacity="1" x="238" y="140" width="149" height="69"/>
    <rect id="rect-20" opacity="1" x="298" y="153" width="81" height="12"/>
    <rect id="rect-21" opacity="1" x="298" y="173" width="47" height="6"/>
    <rect id="rect-22" opacity="1" x="298" y="182" width="53" height="6"/>
    <rect id="rect-23" opacity="1" x="298" y="191" width="38" height="6"/>
    <ellipse id="ellipse-24" opacity="1" rx="24" ry="24" cx="269" cy="173"/>
    <ellipse id="ellipse-25" opacity="1" rx="11.865168539325845" ry="15.44971224993149" cx="269.80898876404495" cy="174.69690326116748"/>
    <path id="path-26" opacity="1" d="M265.7517924786153,156.89267562342368 C261.9172745835945,157.66243173118315 258.08275668857374,160.05722851087927 256.0881195772625,162.93098464651462 C254.04189702341733,165.89026923856767 253.62921348314603,168.7982367567701 254.52336115373384,174.03257828953446 C255.05641072658426,177.1800254857065 255.14238646414077,181.38802554145826 254.71250777635817,183.26965158264807 C254.57494659626775,183.8683507775721 254.52336115373384,184.34731013351131 254.60933689129035,184.34731013351131 C254.8844592514712,184.34731013351131 256.0365341347286,183.69729386473665 256.7243400351807,183.14991174366327 L257.4121459356329,182.60252962258986 L257.4637313781668,183.57755402575185 C257.4981216731894,184.12493614682523 257.4293410831442,184.79205810688345 257.3433653455877,185.0828548587037 C257.0510478378955,185.90392804031382 257.1026332804294,186.00656218801507 258.08275668857374,186.382887396253 C259.68190540712504,186.98158659117706 263.86032625237186,187.88818822920487 263.86032625237186,187.64870855123525 C263.86032625237186,187.61449716866818 263.58520389219103,187.34080610813146 263.24130094196494,187.05000935631122 C261.9688600261284,185.93813942288088 261.2982492731876,184.05651338169108 260.67922396278067,179.81430194337224 C260.1289792424189,176.10236693484325 260.9199560279389,175.12734253168128 266.2160614614205,172.9549197386712 C268.45143063789004,172.03121240935985 270.3085065691109,171.09039938876495 271.8560698451282,170.06405791175234 C273.42082826865686,169.0377164347397 275.6218071501038,167.07056193713217 276.258027608022,166.1468546078208 C276.48156452566894,165.80474078214993 276.75668688584983,165.53104972161324 276.85985777091764,165.53104972161324 C277.0833946885646,165.53104972161324 277.78839573652806,167.05345624584865 278.2870550143559,168.61007415265112 C279.5251056351698,172.54438314786617 279.6282765202376,177.8813588283318 278.56217737453676,182.07225319280002 C278.02912780168634,184.12493614682523 277.37571219625676,185.57891990592645 276.44717423064634,186.70789553064034 C275.8109537727281,187.49475732968335 275.7593683301942,187.59739147738463 276.1032712804203,187.52896871225045 C276.3268081980672,187.4776516383998 276.96302865598545,187.357911799415 277.53046852385853,187.25527765171375 C278.6997385546272,187.03290366502767 280.556814485848,186.46841585267074 281.27901068132275,186.10919633571632 C281.82925540168446,185.83550527517963 282.7234030722723,184.15914752939233 283.2220623501001,182.4656840923215 C283.4799895627697,181.57618814557725 283.5487701528149,180.80643203781779 283.5487701528149,178.65111493609126 C283.5487701528149,177.1800254857065 283.6003555953488,175.9655214045749 283.669136185394,175.9655214045749 C283.892673103041,175.9655214045749 285.0619431338096,177.07739133800524 285.3714557890131,177.573456385228 L285.68096844421655,178.06952143245078 L285.8013344767957,177.59056207651156 C286.1624325745331,176.13657831741034 285.4574315265696,171.32987906673458 284.4429178234027,168.26796032698024 C283.101696317521,164.3336513317652 280.3160824206897,161.08356998789188 278.23546957182197,161.08356998789188 C277.68522485146025,161.08356998789188 277.59924911390374,161.01514722275772 277.30693160621155,160.3480252626995 C276.6191257057594,158.80851304718058 274.5557080044029,157.54269189219835 271.7357038125491,156.96109838855784 C269.8958230288396,156.5847731803199 267.4197217872118,156.5505617977528 265.7517924786153,156.89267562342368Z"/>
    <rect id="rect-27" opacity="1" x="239" y="221" width="149" height="69"/>
    <rect id="rect-28" opacity="1" x="299" y="234" width="81" height="12"/>
    <rect id="rect-29" opacity="1" x="299" y="254" width="47" height="6"/>
    <rect id="rect-30" opacity="1" x="299" y="263" width="53" height="6"/>
    <rect id="rect-31" opacity="1" x="299" y="272" width="38" height="6"/>
    <ellipse id="ellipse-32" opacity="1" rx="24" ry="24" cx="270" cy="254"/>
    <ellipse id="ellipse-33" opacity="1" rx="11.865168539325845" ry="15.44971224993149" cx="270.80898876404495" cy="255.69690326116748"/>
    <path id="path-34" opacity="1" d="M266.7517924786153,237.89267562342368 C262.9172745835945,238.66243173118315 259.08275668857374,241.05722851087927 257.0881195772625,243.93098464651462 C255.04189702341733,246.89026923856767 254.62921348314603,249.7982367567701 255.52336115373384,255.03257828953446 C256.05641072658426,258.1800254857065 256.14238646414077,262.38802554145826 255.71250777635817,264.26965158264807 C255.57494659626775,264.8683507775721 255.52336115373384,265.3473101335113 255.60933689129035,265.3473101335113 C255.8844592514712,265.3473101335113 257.0365341347286,264.69729386473665 257.7243400351807,264.14991174366327 L258.4121459356329,263.6025296225899 L258.4637313781668,264.57755402575185 C258.4981216731894,265.12493614682523 258.4293410831442,265.7920581068835 258.3433653455877,266.0828548587037 C258.0510478378955,266.9039280403138 258.1026332804294,267.00656218801504 259.08275668857374,267.382887396253 C260.68190540712504,267.98158659117706 264.86032625237186,268.88818822920484 264.86032625237186,268.64870855123525 C264.86032625237186,268.61449716866815 264.58520389219103,268.34080610813146 264.24130094196494,268.05000935631125 C262.9688600261284,266.9381394228809 262.2982492731876,265.05651338169105 261.67922396278067,260.81430194337224 C261.1289792424189,257.10236693484325 261.9199560279389,256.1273425316813 267.2160614614205,253.9549197386712 C269.45143063789004,253.03121240935985 271.3085065691109,252.09039938876495 272.8560698451282,251.06405791175234 C274.42082826865686,250.0377164347397 276.6218071501038,248.07056193713217 277.258027608022,247.1468546078208 C277.48156452566894,246.80474078214993 277.75668688584983,246.53104972161324 277.85985777091764,246.53104972161324 C278.0833946885646,246.53104972161324 278.78839573652806,248.05345624584865 279.2870550143559,249.61007415265112 C280.5251056351698,253.54438314786617 280.6282765202376,258.8813588283318 279.56217737453676,263.0722531928 C279.02912780168634,265.12493614682523 278.37571219625676,266.57891990592645 277.44717423064634,267.70789553064037 C276.8109537727281,268.49475732968335 276.7593683301942,268.59739147738463 277.1032712804203,268.52896871225045 C277.3268081980672,268.47765163839983 277.96302865598545,268.357911799415 278.53046852385853,268.25527765171375 C279.6997385546272,268.0329036650277 281.556814485848,267.4684158526707 282.27901068132275,267.1091963357163 C282.82925540168446,266.8355052751796 283.7234030722723,265.1591475293923 284.2220623501001,263.4656840923215 C284.4799895627697,262.57618814557725 284.5487701528149,261.8064320378178 284.5487701528149,259.6511149360913 C284.5487701528149,258.1800254857065 284.6003555953488,256.96552140457493 284.669136185394,256.96552140457493 C284.892673103041,256.96552140457493 286.0619431338096,258.07739133800527 286.3714557890131,258.57345638522804 L286.68096844421655,259.06952143245076 L286.8013344767957,258.59056207651156 C287.1624325745331,257.13657831741034 286.4574315265696,252.32987906673458 285.4429178234027,249.26796032698024 C284.101696317521,245.3336513317652 281.3160824206897,242.08356998789188 279.23546957182197,242.08356998789188 C278.68522485146025,242.08356998789188 278.59924911390374,242.01514722275772 278.30693160621155,241.3480252626995 C277.6191257057594,239.80851304718058 275.5557080044029,238.54269189219835 272.7357038125491,237.96109838855784 C270.8958230288396,237.5847731803199 268.4197217872118,237.5505617977528 266.7517924786153,237.89267562342368Z"/>
    <rect id="rect-35" opacity="1" x="13" y="117" width="180" height="239"/>
    <rect id="rect-36" opacity="1" x="24" y="140" width="149" height="69"/>
    <rect id="rect-37" opacity="1" x="84" y="153" width="81" height="12"/>
    <rect id="rect-38" opacity="1" x="84" y="173" width="47" height="6"/>
    <rect id="rect-39" opacity="1" x="84" y="182" width="53" height="6"/>
    <rect id="rect-40" opacity="1" x="84" y="191" width="38" height="6"/>
    <ellipse id="ellipse-41" opacity="1" rx="24" ry="24" cx="55" cy="173"/>
    <ellipse id="ellipse-42" opacity="1" rx="11.865168539325845" ry="15.44971224993149" cx="55.80898876404495" cy="174.69690326116748"/>
    <path id="path-43" opacity="1" d="M51.75179247861533,156.89267562342368 C47.91727458359455,157.66243173118315 44.082756688573774,160.05722851087927 42.08811957726252,162.93098464651462 C40.04189702341735,165.89026923856767 39.62921348314605,168.7982367567701 40.52336115373386,174.03257828953446 C41.05641072658428,177.1800254857065 41.1423864641408,181.38802554145826 40.7125077763582,183.26965158264807 C40.57494659626777,183.8683507775721 40.52336115373386,184.34731013351131 40.609336891290376,184.34731013351131 C40.88445925147124,184.34731013351131 42.036534134728605,183.69729386473665 42.72434003518076,183.14991174366327 L43.41214593563292,182.60252962258986 L43.46373137816683,183.57755402575185 C43.49812167318944,184.12493614682523 43.42934108314422,184.79205810688345 43.3433653455877,185.0828548587037 C43.05104783789554,185.90392804031382 43.102633280429444,186.00656218801507 44.082756688573774,186.382887396253 C45.681905407125036,186.98158659117706 49.86032625237189,187.88818822920487 49.86032625237189,187.64870855123525 C49.86032625237189,187.61449716866818 49.58520389219103,187.34080610813146 49.24130094196495,187.05000935631122 C47.96886002612846,185.93813942288088 47.29824927318761,184.05651338169108 46.67922396278067,179.81430194337224 C46.12897924241894,176.10236693484325 46.91995602793892,175.12734253168128 52.21606146142054,172.9549197386712 C54.45143063789004,172.03121240935985 56.308506569110875,171.09039938876495 57.856069845128225,170.06405791175234 C59.42082826865689,169.0377164347397 61.62180715010379,167.07056193713217 62.25802760802203,166.1468546078208 C62.481564525668986,165.80474078214993 62.756686885849845,165.53104972161324 62.85985777091767,165.53104972161324 C63.083394688564624,165.53104972161324 63.78839573652809,167.05345624584865 64.2870550143559,168.61007415265112 C65.52510563516978,172.54438314786617 65.62827652023762,177.8813588283318 64.56217737453676,182.07225319280002 C64.02912780168634,184.12493614682523 63.375712196256785,185.57891990592645 62.44717423064638,186.70789553064034 C61.81095377272813,187.49475732968335 61.75936833019422,187.59739147738463 62.1032712804203,187.52896871225045 C62.326808198067255,187.4776516383998 62.9630286559855,187.357911799415 63.530468523858524,187.25527765171375 C64.6997385546272,187.03290366502767 66.55681448584802,186.46841585267074 67.27901068132279,186.10919633571632 C67.82925540168452,185.83550527517963 68.72340307227232,184.15914752939233 69.22206235010013,182.4656840923215 C69.4799895627697,181.57618814557725 69.54877015281491,180.80643203781779 69.54877015281491,178.65111493609126 C69.54877015281491,177.1800254857065 69.60035559534882,175.9655214045749 69.66913618539404,175.9655214045749 C69.89267310304099,175.9655214045749 71.06194313380965,177.07739133800524 71.37145578901313,177.573456385228 L71.6809684442166,178.06952143245078 L71.80133447679572,177.59056207651156 C72.16243257453311,176.13657831741034 71.45743152656965,171.32987906673458 70.44291782340271,168.26796032698024 C69.101696317521,164.3336513317652 66.31608242068977,161.08356998789188 64.235469571822,161.08356998789188 C63.68522485146027,161.08356998789188 63.59924911390375,161.01514722275772 63.30693160621158,160.3480252626995 C62.61912570575942,158.80851304718058 60.555708004402945,157.54269189219835 57.735703812549104,156.96109838855784 C55.89582302883959,156.5847731803199 53.41972178721181,156.5505617977528 51.75179247861533,156.89267562342368Z"/>
    <rect id="rect-44" opacity="1" x="54" y="109" width="97.83493520882405" height="16"/>
    <rect id="rect-45" opacity="1" x="12" y="81" width="134" height="16"/>
    <rect id="rect-46" opacity="1" x="12" y="45" width="34" height="16"/>
    <rect id="rect-47" opacity="1" x="46" y="45" width="48" height="16"/>
    <rect id="rect-48" opacity="1" x="568" y="45" width="16" height="16" rx="10" ry="10"/>
    <rect id="rect-49" opacity="1" x="593" y="45" width="16" height="16" rx="10" ry="10"/>
    <rect id="rect-50" opacity="1" x="542" y="45" width="16" height="16" rx="10" ry="10"/>
  </defs>
  <g transform="translate(0, 0) " opacity="1">
    <g transform="translate(0, 0) " opacity="1">
      <g transform="translate(0, 0) ">
        <use xlink:href="#rect-1" fill="black" fill-opacity="NaN" filter="url(#filter-2)" stroke="black" stroke-opacity="0" stroke-width="0"/>
        <use xlink:href="#rect-1" fill="rgb(255,255,255)" fill-opacity="1"/>
      </g>
      <g transform="translate(0, 0) ">
        <use xlink:href="#path-3" fill="rgb(230,230,230)" fill-opacity="1"/>
      </g>
      <g transform="translate(0, 0) " opacity="0.72">
        <g transform="translate(0, 0) ">
          <use xlink:href="#rect-4" fill="rgb(223,112,101)" fill-opacity="1"/>
        </g>
        <g transform="translate(0, 0) ">
          <use xlink:href="#rect-5" fill="rgb(255,211,32)" fill-opacity="1"/>
        </g>
        <g transform="translate(0, 0) ">
          <use xlink:href="#rect-6" fill="rgb(43,244,129)" fill-opacity="1"/>
        </g>
      </g>
    </g>
    <g transform="translate(0, 0) " opacity="1">
      <g transform="translate(0, 0) " opacity="1">
        <g transform="translate(0, 0) ">
          <use xlink:href="#rect-7" fill="rgb(244,244,244)" fill-opacity="1"/>
        </g>
        <g transform="translate(0, 0) ">
          <use xlink:href="#rect-8" fill="rgb(7,166,19)" fill-opacity="1"/>
        </g>
        <g transform="translate(0, 0) " opacity="1">
          <g transform="translate(0, 0) ">
            <use xlink:href="#rect-9" fill="rgb(219,219,219)" fill-opacity="1"/>
          </g>
          <g transform="translate(0, 0) ">
            <use xlink:href="#rect-10" fill="rgb(179,179,179)" fill-opacity="1"/>
          </g>
          <g transform="translate(0, 0) ">
            <use xlink:href="#rect-11" fill="rgb(179,179,179)" fill-opacity="1"/>
          </g>
          <g transform="translate(0, 0) ">
            <use xlink:href="#rect-12" fill="rgb(179,179,179)" fill-opacity="1"/>
          </g>
          <g transform="translate(0, 0) ">
            <use xlink:href="#rect-13" fill="rgb(179,179,179)" fill-opacity="1"/>
          </g>
          <g transform="translate(0, 0) " opacity="1">
            <g transform="translate(0, 0) ">
              <use xlink:href="#ellipse-14" fill="rgb(244,244,244)" fill-opacity="1"/>
            </g>
            <g transform="translate(0, 0) ">
              <use xlink:href="#ellipse-15" fill="rgb(227,227,227)" fill-opacity="1"/>
            </g>
            <g transform="translate(0, 0) ">
              <use xlink:href="#path-16" fill="rgb(168,168,168)" fill-opacity="1"/>
            </g>
          </g>
        </g>
      </g>
      <g transform="translate(0, 0) " opacity="1">
        <g transform="translate(0, 0) ">
          <use xlink:href="#rect-17" fill="rgb(244,244,244)" fill-opacity="1"/>
        </g>
        <g transform="translate(0, 0) ">
          <use xlink:href="#rect-18" fill="rgb(33,150,243)" fill-opacity="1"/>
        </g>
        <g transform="translate(0, 0) " opacity="1">
          <g transform="translate(0, 0) ">
            <use xlink:href="#rect-19" fill="rgb(219,219,219)" fill-opacity="1"/>
          </g>
          <g transform="translate(0, 0) ">
            <use xlink:href="#rect-20" fill="rgb(179,179,179)" fill-opacity="1"/>
          </g>
          <g transform="translate(0, 0) ">
            <use xlink:href="#rect-21" fill="rgb(179,179,179)" fill-opacity="1"/>
          </g>
          <g transform="translate(0, 0) ">
            <use xlink:href="#rect-22" fill="rgb(179,179,179)" fill-opacity="1"/>
          </g>
          <g transform="translate(0, 0) ">
            <use xlink:href="#rect-23" fill="rgb(179,179,179)" fill-opacity="1"/>
          </g>
          <g transform="translate(0, 0) " opacity="1">
            <g transform="translate(0, 0) ">
              <use xlink:href="#ellipse-24" fill="rgb(244,244,244)" fill-opacity="1"/>
            </g>
            <g transform="translate(0, 0) ">
              <use xlink:href="#ellipse-25" fill="rgb(227,227,227)" fill-opacity="1"/>
            </g>
            <g transform="translate(0, 0) ">
              <use xlink:href="#path-26" fill="rgb(168,168,168)" fill-opacity="1"/>
            </g>
          </g>
        </g>
        <g transform="translate(0, 0) " opacity="1">
          <g transform="translate(0, 0) ">
            <use xlink:href="#rect-27" fill="rgb(219,219,219)" fill-opacity="1"/>
          </g>
          <g transform="translate(0, 0) ">
            <use xlink:href="#rect-28" fill="rgb(179,179,179)" fill-opacity="1"/>
          </g>
          <g transform="translate(0, 0) ">
            <use xlink:href="#rect-29" fill="rgb(179,179,179)" fill-opacity="1"/>
          </g>
          <g transform="translate(0, 0) ">
            <use xlink:href="#rect-30" fill="rgb(179,179,179)" fill-opacity="1"/>
          </g>
          <g transform="translate(0, 0) ">
            <use xlink:href="#rect-31" fill="rgb(179,179,179)" fill-opacity="1"/>
          </g>
          <g transform="translate(0, 0) " opacity="1">
            <g transform="translate(0, 0) ">
              <use xlink:href="#ellipse-32" fill="rgb(244,244,244)" fill-opacity="1"/>
            </g>
            <g transform="translate(0, 0) ">
              <use xlink:href="#ellipse-33" fill="rgb(227,227,227)" fill-opacity="1"/>
            </g>
            <g transform="translate(0, 0) ">
              <use xlink:href="#path-34" fill="rgb(168,168,168)" fill-opacity="1"/>
            </g>
          </g>
        </g>
      </g>
      <g transform="translate(0, 0) " opacity="1">
        <g transform="translate(0, 0) ">
          <use xlink:href="#rect-35" fill="rgb(244,244,244)" fill-opacity="1"/>
        </g>
        <g transform="translate(0, 0) " opacity="1">
          <g transform="translate(0, 0) ">
            <use xlink:href="#rect-36" fill="rgb(219,219,219)" fill-opacity="1"/>
          </g>
          <g transform="translate(0, 0) ">
            <use xlink:href="#rect-37" fill="rgb(179,179,179)" fill-opacity="1"/>
          </g>
          <g transform="translate(0, 0) ">
            <use xlink:href="#rect-38" fill="rgb(179,179,179)" fill-opacity="1"/>
          </g>
          <g transform="translate(0, 0) ">
            <use xlink:href="#rect-39" fill="rgb(179,179,179)" fill-opacity="1"/>
          </g>
          <g transform="translate(0, 0) ">
            <use xlink:href="#rect-40" fill="rgb(179,179,179)" fill-opacity="1"/>
          </g>
          <g transform="translate(0, 0) " opacity="1">
            <g transform="translate(0, 0) ">
              <use xlink:href="#ellipse-41" fill="rgb(244,244,244)" fill-opacity="1"/>
            </g>
            <g transform="translate(0, 0) ">
              <use xlink:href="#ellipse-42" fill="rgb(227,227,227)" fill-opacity="1"/>
            </g>
            <g transform="translate(0, 0) ">
              <use xlink:href="#path-43" fill="rgb(168,168,168)" fill-opacity="1"/>
            </g>
          </g>
        </g>
        <g transform="translate(0, 0) ">
          <use xlink:href="#rect-44" fill="rgb(174,174,174)" fill-opacity="1"/>
        </g>
      </g>
      <g transform="translate(0, 0) ">
        <use xlink:href="#rect-45" fill="rgb(236,236,236)" fill-opacity="1"/>
      </g>
      <g transform="translate(0, 0) " opacity="1">
        <g transform="translate(0, 0) " opacity="1">
          <g transform="translate(0, 0) ">
            <use xlink:href="#rect-46" fill="rgb(219,219,219)" fill-opacity="1"/>
          </g>
          <g transform="translate(0, 0) ">
            <use xlink:href="#rect-47" fill="rgb(255,200,0)" fill-opacity="1"/>
          </g>
        </g>
        <g transform="translate(0, 0) " opacity="1">
          <g transform="translate(0, 0) ">
            <use xlink:href="#rect-48" fill="rgb(219,219,219)" fill-opacity="1"/>
          </g>
          <g transform="translate(0, 0) ">
            <use xlink:href="#rect-49" fill="rgb(219,219,219)" fill-opacity="1"/>
          </g>
          <g transform="translate(0, 0) ">
            <use xlink:href="#rect-50" fill="rgb(219,219,219)" fill-opacity="1"/>
          </g>
        </g>
      </g>
    </g>
  </g>
</svg>