<?xml version="1.0" encoding="utf-8"?>
<svg version="1.1" xmlns="http://www.w3.org/2000/svg" xmlns:xlink="http://www.w3.org/1999/xlink" height="372" width="621.0822747663865">
  <defs>
    <rect id="rect-0" opacity="1" x="0" y="0" width="621.0822747663865" height="372"/>
    <rect id="rect-1" opacity="1" x="0" y="0" width="621" height="372" rx="5" ry="5"/>
    <filter id="filter-2" filterUnits="userSpaceOnUse" x="-50%" y="-50%" width="200%" height="200%">
      <feOffset in="SourceAlpha" result="shadow-1-feOffset-shadow" dx="0" dy="5"/>
      <feGaussianBlur in="shadow-1-feOffset-shadow" result="shadow-1-feGaussianBlur-shadow" stdDeviation="2.5"/>
      <feColorMatrix in="shadow-1-feGaussianBlur-shadow" result="shadow-1-feColorMatrix-shadow" type="matrix" values="0 0 0 0 0  0 0 0 0 0  0 0 0 0 0  0 0 0 0.2 0"/>
    </filter>
    <path id="path-3" opacity="1" d="M5,0 L616.0822747663865,0 C618.8418498888565,0 621.0822747663865,2.24042487753 621.0822747663865,5 L621.0822747663865,34 L0,34 L0,5 C0,2.24042487753 2.24042487753,0 5,0Z"/>
    <rect id="rect-4" opacity="1" x="14" y="12" width="10.603448275862121" height="11" rx="8" ry="8"/>
    <rect id="rect-5" opacity="1" x="28.844827586207998" y="12" width="10.603448275862124" height="11" rx="8" ry="8"/>
    <rect id="rect-6" opacity="1" x="44.39655172413654" y="12" width="10.603448275862121" height="11" rx="8" ry="8"/>
    <rect id="rect-7" opacity="1" x="258" y="96" width="351" height="251"/>
    <rect id="rect-8" opacity="1" x="298.50467289719626" y="278" width="159.49532710280374" height="14"/>
    <path id="path-9" opacity="1" d="M285.5900000000001,279.58 L287.0000000000001,281 L278.0000000000001,290 L273.0000000000001,285 L274.41000000000014,283.59 L278.0000000000001,287.16999999999996 L285.5900000000001,279.58 L285.5900000000001,279.58ZM280,275 C274.48,275 270,279.48 270,285 C270,290.52 274.48,295 280,295 C285.52,295 289.99999999999994,290.52 289.99999999999994,285 C289.99999999999994,279.48 285.52,275 280,275 L280,275Z"/>
    <rect id="rect-10" opacity="1" x="298.50467289719626" y="250" width="159.49532710280374" height="14"/>
    <path id="path-11" opacity="1" d="M285.5900000000001,251.57999999999998 L287.0000000000001,252.99999999999997 L278.0000000000001,262 L273.0000000000001,257 L274.41000000000014,255.58999999999997 L278.0000000000001,259.16999999999996 L285.5900000000001,251.57999999999998 L285.5900000000001,251.57999999999998ZM280,247 C274.48,247 270,251.48 270,257 C270,262.52 274.48,267 280,267 C285.52,267 289.99999999999994,262.52 289.99999999999994,257 C289.99999999999994,251.48 285.52,247 280,247 L280,247Z"/>
    <rect id="rect-12" opacity="1" x="298.50467289719626" y="223" width="214.49532710280374" height="14"/>
    <path id="path-13" opacity="1" d="M285.5900000000001,224.57999999999998 L287.0000000000001,225.99999999999997 L278.0000000000001,234.99999999999997 L273.0000000000001,229.99999999999997 L274.41000000000014,228.58999999999997 L278.0000000000001,232.17 L285.5900000000001,224.57999999999998 L285.5900000000001,224.57999999999998ZM280,220 C274.48,220 270,224.48 270,230 C270,235.52 274.48,240 280,240 C285.52,240 289.99999999999994,235.52 289.99999999999994,230 C289.99999999999994,224.48 285.52,220 280,220 L280,220Z"/>
    <rect id="rect-14" opacity="1" x="298.50467289719626" y="195" width="141.49532710280374" height="14"/>
    <path id="path-15" opacity="1" d="M285.5900000000001,196.57999999999998 L287.0000000000001,197.99999999999997 L278.0000000000001,206.99999999999997 L273.0000000000001,201.99999999999997 L274.41000000000014,200.58999999999997 L278.0000000000001,204.17 L285.5900000000001,196.57999999999998 L285.5900000000001,196.57999999999998ZM280,192 C274.48,192 270,196.48 270,202 C270,207.52 274.48,212 280,212 C285.52,212 289.99999999999994,207.52 289.99999999999994,202 C289.99999999999994,196.48 285.52,192 280,192 L280,192Z"/>
    <rect id="rect-16" opacity="1" x="300" y="168" width="257" height="14"/>
    <path id="path-17" opacity="1" d="M285.59,169.57999999999998 L287,170.99999999999997 L278,179.99999999999997 L273,174.99999999999997 L274.41,173.58999999999997 L278,177.17 L285.59,169.57999999999998 L285.59,169.57999999999998ZM280,165 C274.48,165 270,169.48 270,175 C270,180.52 274.48,185 280,185 C285.52,185 290,180.52 290,175 C290,169.48 285.52,165 280,165 L280,165Z"/>
    <rect id="rect-18" opacity="1" x="300" y="140" width="227" height="14"/>
    <path id="path-19" opacity="1" d="M285.59,141.57999999999998 L287,142.99999999999997 L278,151.99999999999997 L273,146.99999999999997 L274.41,145.58999999999997 L278,149.17 L285.59,141.57999999999998 L285.59,141.57999999999998ZM280,137 C274.48,137 270,141.48 270,147 C270,152.52 274.48,157 280,157 C285.52,157 290,152.52 290,147 C290,141.48 285.52,137 280,137 L280,137Z"/>
    <rect id="rect-20" opacity="1" x="270" y="108" width="75" height="14"/>
    <rect id="rect-21" opacity="1" x="127" y="96" width="109" height="14"/>
    <rect id="rect-22" opacity="1" x="127" y="115" width="54.14166203982768" height="14"/>
    <rect id="rect-23" opacity="1" x="127" y="134" width="54.14166203982768" height="14"/>
    <ellipse id="ellipse-24" opacity="1" rx="44.5" ry="44.5" cx="56.49999999999998" cy="138.5"/>
    <ellipse id="ellipse-25" opacity="1" rx="22" ry="28.64634146341464" cx="57.99999999999998" cy="141.64634146341464"/>
    <path id="path-26" opacity="1" d="M50.47728188743259,108.63433605176475 C43.36744662374823,110.06159216823542 36.25761136006387,114.50194453058864 32.55922171617425,119.8303673654125 C28.765184064252995,125.31737421317754 27.99999999999997,130.70923065317788 29.657898805881526,140.41457224517848 C30.646261555541685,146.25046392141417 30.805674902261064,154.05279735812053 30.00860816866416,157.5416456428266 C29.753546813913154,158.65173373341491 29.657898805881526,159.53980420588556 29.81731215260091,159.53980420588556 C30.327434862102923,159.53980420588556 32.46357370814262,158.33456570753253 33.73888048189766,157.31962802470895 L35.0141872556527,156.30469034188536 L35.10983526368433,158.1125480894149 C35.17360060237208,159.1274857722385 35.04606992499658,160.36444107317973 34.8866565782772,160.90362671717978 C34.344651199431304,162.42603324141515 34.44029920746293,162.6163340569446 36.25761136006387,163.3141037138858 C39.22269960904434,164.4241918044741 46.97018825960622,166.10518234165067 46.97018825960622,165.66114710541535 C46.97018825960622,165.59771350023888 46.46006555010421,165.0902446588271 45.82241216322669,164.55105901482705 C43.46309463177985,162.48946684659165 42.21967052736869,159.00061856188555 41.071894430989154,151.13485152000268 C40.05164901198512,144.25230535835522 41.51825180180342,142.44444761082568 51.338113959717234,138.41641368211955 C55.48286097442113,136.70370634235474 58.92618926355974,134.95928220000167 61.79562950450859,133.05627404470744 C64.6969524148013,131.1532658894132 68.77793409081744,127.50583359176592 69.95759285654086,125.79312625200112 C70.37206755801125,125.15879020023635 70.88219026751327,124.65132135882456 71.07348628357653,124.65132135882456 C71.48796098504691,124.65132135882456 72.79515042814583,127.47411678917769 73.71974783911824,130.36034582470728 C76.0153000318773,137.65521042000185 76.20659604794056,147.55085282753186 74.22987054862026,155.32146946165 C73.2415077989601,159.1274857722385 72.0299663638928,161.82341399223864 70.3083022193235,163.9167229630623 C69.12864345360009,165.37569588212122 69.03299544556845,165.56599669765063 69.67064883244598,165.4391294872977 C70.08512353391636,165.34397907953297 71.26478229963976,165.1219614614153 72.31691038798769,164.9316606458859 C74.48493190337126,164.51934221223883 77.92826019250987,163.472687726827 79.26733230495267,162.806634872474 C80.2875777239567,162.2991660310622 81.94547652983826,159.19091937741496 82.87007394081067,156.05095592117948 C83.34831398096881,154.40168218659113 83.47584465834431,152.97442607012044 83.47584465834431,148.97810894400254 C83.47584465834431,146.25046392141417 83.57149266637595,143.9985709376493 83.69902334375143,143.9985709376493 C84.11349804522183,143.9985709376493 86.2815195606054,146.06016310588473 86.85540760879518,146.9799503809436 L87.42929565698495,147.8997376560025 L87.65247434239208,147.01166718353184 C88.32201039861347,144.31573896353166 87.01482095551455,135.40331743623702 85.13374346422586,129.72600977294252 C82.64689525540354,122.43114517764795 77.48190282169561,116.40495268588288 73.62409983108661,116.40495268588288 C72.60385441208258,116.40495268588288 72.44444106536321,116.27808547552992 71.9024356865173,115.04113017458867 C70.62712891276226,112.18661794164731 66.80120859149713,109.83957455011776 61.57245081910146,108.76120326211769 C58.16100519930673,108.06343360517647 53.56990081378857,108 50.47728188743259,108.63433605176475Z"/>
    <rect id="rect-27" opacity="1" x="12" y="45" width="34" height="16"/>
    <rect id="rect-28" opacity="1" x="46" y="45" width="48" height="16"/>
    <rect id="rect-29" opacity="1" x="568" y="45" width="16" height="16" rx="10" ry="10"/>
    <rect id="rect-30" opacity="1" x="593" y="45" width="16" height="16" rx="10" ry="10"/>
    <rect id="rect-31" opacity="1" x="542" y="45" width="16" height="16" rx="10" ry="10"/>
  </defs>
  <g transform="translate(0, 0) " opacity="1">
    <g transform="translate(0, 0) " opacity="1">
      <g transform="translate(0, 0) ">
        <use xlink:href="#rect-1" fill="black" fill-opacity="NaN" filter="url(#filter-2)" stroke="black" stroke-opacity="0" stroke-width="0"/>
        <use xlink:href="#rect-1" fill="rgb(255,255,255)" fill-opacity="1"/>
      </g>
      <g transform="translate(0, 0) ">
        <use xlink:href="#path-3" fill="rgb(230,230,230)" fill-opacity="1"/>
      </g>
      <g transform="translate(0, 0) " opacity="0.72">
        <g transform="translate(0, 0) ">
          <use xlink:href="#rect-4" fill="rgb(223,112,101)" fill-opacity="1"/>
        </g>
        <g transform="translate(0, 0) ">
          <use xlink:href="#rect-5" fill="rgb(255,211,32)" fill-opacity="1"/>
        </g>
        <g transform="translate(0, 0) ">
          <use xlink:href="#rect-6" fill="rgb(43,244,129)" fill-opacity="1"/>
        </g>
      </g>
    </g>
    <g transform="translate(0, 0) " opacity="1">
      <g transform="translate(0, 0) " opacity="1">
        <g transform="translate(0, 0) " opacity="1">
          <g transform="translate(0, 0) ">
            <use xlink:href="#rect-7" fill="rgb(244,244,244)" fill-opacity="1"/>
          </g>
          <g transform="translate(0, 0) " opacity="1">
            <g transform="translate(0, 0) ">
              <use xlink:href="#rect-8" fill="rgb(193,193,193)" fill-opacity="1"/>
            </g>
            <g transform="translate(0, 0) " opacity="1">
              <g transform="translate(0, 0) ">
                <use xlink:href="#path-9" fill="rgb(212,212,212)" fill-opacity="1"/>
              </g>
            </g>
          </g>
          <g transform="translate(0, 0) " opacity="1">
            <g transform="translate(0, 0) ">
              <use xlink:href="#rect-10" fill="rgb(193,193,193)" fill-opacity="1"/>
            </g>
            <g transform="translate(0, 0) " opacity="1">
              <g transform="translate(0, 0) ">
                <use xlink:href="#path-11" fill="rgb(212,212,212)" fill-opacity="1"/>
              </g>
            </g>
          </g>
          <g transform="translate(0, 0) " opacity="1">
            <g transform="translate(0, 0) ">
              <use xlink:href="#rect-12" fill="rgb(193,193,193)" fill-opacity="1"/>
            </g>
            <g transform="translate(0, 0) " opacity="1">
              <g transform="translate(0, 0) ">
                <use xlink:href="#path-13" fill="rgb(212,212,212)" fill-opacity="1"/>
              </g>
            </g>
          </g>
          <g transform="translate(0, 0) " opacity="1">
            <g transform="translate(0, 0) ">
              <use xlink:href="#rect-14" fill="rgb(193,193,193)" fill-opacity="1"/>
            </g>
            <g transform="translate(0, 0) " opacity="1">
              <g transform="translate(0, 0) ">
                <use xlink:href="#path-15" fill="rgb(0,202,66)" fill-opacity="1"/>
              </g>
            </g>
          </g>
          <g transform="translate(0, 0) " opacity="1">
            <g transform="translate(0, 0) ">
              <use xlink:href="#rect-16" fill="rgb(193,193,193)" fill-opacity="1"/>
            </g>
            <g transform="translate(0, 0) " opacity="1">
              <g transform="translate(0, 0) ">
                <use xlink:href="#path-17" fill="rgb(0,202,66)" fill-opacity="1"/>
              </g>
            </g>
          </g>
          <g transform="translate(0, 0) " opacity="1">
            <g transform="translate(0, 0) ">
              <use xlink:href="#rect-18" fill="rgb(193,193,193)" fill-opacity="1"/>
            </g>
            <g transform="translate(0, 0) " opacity="1">
              <g transform="translate(0, 0) ">
                <use xlink:href="#path-19" fill="rgb(0,202,66)" fill-opacity="1"/>
              </g>
            </g>
          </g>
          <g transform="translate(0, 0) ">
            <use xlink:href="#rect-20" fill="rgb(193,193,193)" fill-opacity="1"/>
          </g>
        </g>
        <g transform="translate(0, 0) " opacity="1">
          <g transform="translate(0, 0) ">
            <use xlink:href="#rect-21" fill="rgb(193,193,193)" fill-opacity="1"/>
          </g>
          <g transform="translate(0, 0) ">
            <use xlink:href="#rect-22" fill="rgb(193,193,193)" fill-opacity="1"/>
          </g>
          <g transform="translate(0, 0) ">
            <use xlink:href="#rect-23" fill="rgb(193,193,193)" fill-opacity="1"/>
          </g>
        </g>
        <g transform="translate(0, 0) " opacity="1">
          <g transform="translate(0, 0) ">
            <use xlink:href="#ellipse-24" fill="rgb(244,244,244)" fill-opacity="1"/>
          </g>
          <g transform="translate(0, 0) ">
            <use xlink:href="#ellipse-25" fill="rgb(227,227,227)" fill-opacity="1"/>
          </g>
          <g transform="translate(0, 0) ">
            <use xlink:href="#path-26" fill="rgb(168,168,168)" fill-opacity="1"/>
          </g>
        </g>
      </g>
      <g transform="translate(0, 0) " opacity="1">
        <g transform="translate(0, 0) " opacity="1">
          <g transform="translate(0, 0) ">
            <use xlink:href="#rect-27" fill="rgb(219,219,219)" fill-opacity="1"/>
          </g>
          <g transform="translate(0, 0) ">
            <use xlink:href="#rect-28" fill="rgb(255,200,0)" fill-opacity="1"/>
          </g>
        </g>
        <g transform="translate(0, 0) " opacity="1">
          <g transform="translate(0, 0) ">
            <use xlink:href="#rect-29" fill="rgb(219,219,219)" fill-opacity="1"/>
          </g>
          <g transform="translate(0, 0) ">
            <use xlink:href="#rect-30" fill="rgb(219,219,219)" fill-opacity="1"/>
          </g>
          <g transform="translate(0, 0) ">
            <use xlink:href="#rect-31" fill="rgb(219,219,219)" fill-opacity="1"/>
          </g>
        </g>
      </g>
    </g>
  </g>
</svg>